<svg version="1" xmlns="http://www.w3.org/2000/svg" width="1365.333" height="1365.333" viewBox="0 0 1024.000000 1024.000000"><path d="M0 512v512h1024V0H0v512zm570.2-233.3c1.6 3.8 4.3 9.6 5.9 13.1 1.6 3.5 2.9 6.5 2.9 6.7 0 .2 2 4.8 4.5 10.1s4.5 9.7 4.5 9.9c0 .4 3.9 9 9.1 20.3 1.6 3.4 2.9 6.4 2.9 6.6 0 .3 1.8 4.4 4 9.1 2.2 4.7 4 8.8 4 9 0 .2 2 4.6 4.5 9.9 2.5 5.3 4.5 9.9 4.5 10.1 0 .3 5.3 12.1 14.1 31.3 1.6 3.5 2.9 6.5 2.9 6.7 0 .2 1.6 3.8 3.6 8.2 4.2 9.3 5.6 12.3 8.2 18.3 1.1 2.5 3.1 7 4.5 10s5.5 12.2 9.2 20.5c9.2 20.6 9 20.3 12 27 1.5 3.3 5.3 11.8 8.5 19 3.2 7.1 6.9 15.5 8.3 18.5 1.4 3 4.3 9.5 6.5 14.5 3.9 9 15.1 34 19 42.5 5.9 13 8.2 18.2 8.2 18.5 0 .2 1.7 4.1 3.9 8.7 2.1 4.5 5.5 12.1 7.6 16.8 3.7 8.3 4.9 11 11.4 25.3 1.7 3.8 3.1 7 3.1 7.2 0 .2 1.5 3.6 3.4 7.7 1.9 4 7.1 15.6 11.6 25.8 4.5 10.2 9.1 20.5 10.2 23 6.3 13.7 7.8 17.3 7.8 18.6 0 1.2-8.9 1.4-58.3 1.4h-58.2l-1.3-2.8c-.6-1.6-2.3-5.5-3.6-8.8-3.4-8.5-9.5-23.6-10.6-25.9-.5-1.1-3.2-7.6-6-14.5s-5.5-13.4-6-14.5c-1.6-3.6-4.6-10.8-10.1-24.2l-5.4-13.3H510.3c-75.1 0-111.3.3-111.3 1 0 .8-10.2 25.9-14 34.5-.5 1.1-3.2 7.6-6 14.5s-5.5 13.4-6 14.5c-.5 1.1-2.9 6.9-5.4 13-2.4 6-5.9 14.5-7.6 18.7l-3.2 7.8h-56.9c-49.8 0-56.9-.2-56.9-1.5 0-.8 2.1-6.1 4.6-11.7 2.5-5.7 5.2-11.7 5.9-13.3.8-1.7 2.6-5.7 4-9 1.5-3.3 3.6-8 4.7-10.5 2.6-6 4-9 8.2-18.3 2-4.4 3.6-8 3.6-8.2 0-.2 1.3-3.2 2.9-6.7 2.4-5.1 11.7-26.1 29.6-66.3 4.6-10.2 6.5-14.5 8.3-18.5 6.3-13.9 8.2-18.2 8.2-18.5 0-.2 1.8-4.3 4.1-9.2 2.2-4.8 5.2-11.5 6.6-14.8 1.4-3.3 4.1-9.3 5.9-13.3 1.9-4.1 3.4-7.5 3.4-7.7 0-.2 1.5-3.6 3.4-7.7 1.9-4 5.3-11.6 7.6-16.8 8.9-20.2 12.3-27.7 14.7-33 1.4-3 3.4-7.5 4.5-10 2.1-4.8 2.9-6.7 7.8-17.4 1.7-3.8 5.4-12.1 8.2-18.5 2.8-6.4 7.5-16.9 10.4-23.4 3-6.5 5.4-12 5.4-12.2 0-.2 2-4.8 4.5-10.1s4.5-9.8 4.5-10c0-.2 1.1-2.7 2.4-5.6 1.3-2.9 4-8.8 6-13.1 2-4.4 3.6-8 3.6-8.2 0-.2 1.8-4.3 4-9s4-8.8 4-9c0-.2 2-4.8 4.5-10.1s4.5-9.7 4.5-9.9c0-.3 3-7.2 8.2-18.5 1.2-2.5 2.7-6 3.5-7.8l1.3-3.2h111.1l3.1 6.7z"/><path d="M502.6 402.2c-4.3 10.6-8.4 20.6-9.2 22.3-.7 1.6-2.9 7-4.9 12-2 4.9-4.2 10.3-5 12-1.2 2.8-8.5 20.4-21.7 52.5-3.2 8-6.3 15.4-6.8 16.5-1.3 2.9-8 19.1-13.8 33.2l-5 12.3h74.4c43.1 0 74.4-.4 74.4-.9s-1.3-4-2.9-7.7c-1.6-3.8-6.6-15.9-11.1-26.9-4.5-11-8.8-21.4-9.6-23-.7-1.7-4-9.8-7.4-18-3.4-8.3-8.8-21.3-11.9-29-3.2-7.7-8.4-20.1-11.4-27.5-3.1-7.4-8.5-20.6-12.1-29.2-3.6-8.7-6.6-16.2-6.6-16.8 0-3.5-2.5 1.3-9.4 18.2z"/></svg>